<svg xmlns="http://www.w3.org/2000/svg" xmlns:xlink="http://www.w3.org/1999/xlink" width="500" zoomAndPan="magnify" viewBox="0 0 375 374.999991" height="500" preserveAspectRatio="xMidYMid meet" version="1.0"><defs><clipPath id="b0b69e767e"><path d="M 6 9.769531 L 369 9.769531 L 369 347.269531 L 6 347.269531 Z M 6 9.769531 " clip-rule="nonzero"/></clipPath></defs><g clip-path="url(#b0b69e767e)"><path fill="#5c700c" d="M 289.132812 112.878906 L 21.535156 112.878906 L 21.351562 112.875 L 21.195312 112.867188 L 21.089844 112.867188 L 20.859375 112.859375 L 20.828125 112.859375 L 20.570312 112.847656 L 20.527344 112.84375 L 20.308594 112.832031 L 20.195312 112.824219 L 20.054688 112.816406 L 19.859375 112.804688 L 19.796875 112.796875 L 19.527344 112.773438 L 19.28125 112.753906 L 19.195312 112.742188 L 19.023438 112.726562 L 18.867188 112.707031 L 18.773438 112.699219 L 18.539062 112.667969 L 18.519531 112.660156 L 18.265625 112.632812 L 18.207031 112.621094 L 18.011719 112.597656 L 17.886719 112.578125 L 17.761719 112.554688 L 17.5625 112.519531 L 17.507812 112.515625 L 17.261719 112.46875 L 17.234375 112.464844 L 17.007812 112.425781 L 16.914062 112.40625 L 16.761719 112.375 L 16.589844 112.34375 L 16.515625 112.324219 L 16.269531 112.273438 L 16.019531 112.21875 L 15.957031 112.203125 L 15.773438 112.15625 L 15.636719 112.128906 L 15.53125 112.101562 L 15.324219 112.046875 L 15.285156 112.039062 L 15.042969 111.972656 L 15.011719 111.960938 L 14.800781 111.90625 L 14.699219 111.882812 L 14.566406 111.835938 L 14.386719 111.785156 L 14.324219 111.765625 L 14.082031 111.695312 L 13.84375 111.617188 L 13.773438 111.59375 L 13.605469 111.542969 L 13.464844 111.492188 L 13.371094 111.460938 L 13.164062 111.386719 L 13.136719 111.378906 L 12.902344 111.292969 L 12.859375 111.277344 L 12.667969 111.207031 L 12.558594 111.164062 L 12.4375 111.121094 L 12.261719 111.050781 L 12.207031 111.027344 L 11.964844 110.929688 L 11.746094 110.835938 L 11.667969 110.808594 L 11.519531 110.742188 L 11.375 110.679688 L 11.292969 110.640625 L 11.066406 110.546875 L 10.84375 110.441406 L 10.796875 110.414062 L 10.625 110.332031 L 10.503906 110.277344 L 10.398438 110.226562 L 10.179688 110.117188 L 9.957031 110.007812 L 9.933594 109.992188 L 9.742188 109.890625 L 9.652344 109.84375 L 9.523438 109.773438 L 9.375 109.699219 L 9.308594 109.660156 L 9.089844 109.542969 L 8.875 109.421875 L 8.820312 109.386719 L 8.667969 109.296875 L 8.542969 109.226562 L 8.453125 109.167969 L 8.269531 109.058594 L 8.246094 109.042969 L 8.035156 108.914062 L 8.003906 108.898438 L 7.828125 108.78125 L 7.734375 108.726562 L 7.621094 108.652344 L 7.46875 108.554688 L 7.417969 108.515625 L 7.011719 108.242188 L 6.945312 108.195312 L 6.808594 108.101562 L 6.808594 166 L 6.789062 166 L 7.085938 328.386719 L 7.109375 328.386719 C 7.109375 333.566406 9.238281 338.285156 12.65625 341.703125 C 16.078125 345.125 20.789062 347.246094 25.972656 347.246094 L 328.179688 347.246094 C 333.375 347.246094 338.09375 345.128906 341.5 341.726562 L 341.519531 341.703125 C 344.925781 338.296875 347.042969 333.582031 347.042969 328.386719 L 347.042969 272.71875 L 283.808594 272.71875 C 272.03125 272.71875 261.363281 267.949219 253.648438 260.226562 C 245.925781 252.507812 241.148438 241.84375 241.148438 230.066406 C 241.148438 218.285156 245.925781 207.617188 253.648438 199.902344 C 261.363281 192.183594 272.03125 187.40625 283.808594 187.40625 L 347.042969 187.40625 L 347.042969 131.742188 C 347.042969 126.5625 344.921875 121.84375 341.5 118.421875 C 338.082031 115.003906 333.359375 112.878906 328.179688 112.878906 Z M 292.066406 230.066406 C 292.066406 232.34375 291.136719 234.410156 289.644531 235.902344 C 288.15625 237.390625 286.089844 238.320312 283.804688 238.320312 C 281.527344 238.320312 279.460938 237.390625 277.96875 235.902344 C 276.476562 234.410156 275.550781 232.34375 275.550781 230.066406 C 275.550781 227.78125 276.476562 225.714844 277.96875 224.222656 C 279.460938 222.730469 281.527344 221.808594 283.804688 221.808594 C 286.089844 221.808594 288.15625 222.730469 289.644531 224.222656 C 291.144531 225.707031 292.066406 227.777344 292.066406 230.066406 Z M 352.644531 198.613281 L 364.003906 198.613281 C 365.316406 198.613281 366.496094 199.136719 367.335938 199.976562 L 367.335938 200 C 368.1875 200.855469 368.722656 202.035156 368.722656 203.328125 L 368.722656 256.792969 C 368.722656 258.105469 368.199219 259.285156 367.355469 260.125 L 367.335938 260.144531 C 366.496094 260.988281 365.316406 261.511719 364.003906 261.511719 L 283.808594 261.511719 C 275.121094 261.511719 267.261719 257.992188 261.570312 252.304688 C 255.882812 246.613281 252.359375 238.746094 252.359375 230.066406 C 252.359375 221.382812 255.882812 213.515625 261.570312 207.824219 C 267.261719 202.136719 275.121094 198.613281 283.808594 198.613281 Z M 297.570312 216.320312 C 301.089844 219.84375 303.273438 224.707031 303.273438 230.066406 C 303.273438 235.433594 301.089844 240.300781 297.570312 243.824219 C 294.046875 247.34375 289.175781 249.527344 283.804688 249.527344 C 278.4375 249.527344 273.566406 247.34375 270.042969 243.824219 C 266.523438 240.300781 264.34375 235.4375 264.34375 230.066406 C 264.34375 224.691406 266.523438 219.824219 270.042969 216.300781 C 273.566406 212.777344 278.4375 210.601562 283.804688 210.601562 C 289.175781 210.601562 294.046875 212.777344 297.570312 216.300781 Z M 283.261719 71.539062 L 293.175781 101.671875 L 314.742188 101.671875 L 314.742188 90.402344 C 314.742188 85.214844 312.621094 80.5 309.199219 77.082031 C 305.78125 73.660156 301.066406 71.539062 295.878906 71.539062 Z M 202.863281 71.429688 L 99.460938 101.671875 L 281.402344 101.671875 L 270.335938 68.03125 C 270.238281 67.800781 270.164062 67.5625 270.101562 67.320312 L 265.429688 53.132812 L 203.800781 71.15625 C 203.503906 71.273438 203.1875 71.367188 202.863281 71.429688 Z M 192.714844 9.792969 L 221.207031 54.191406 L 199.894531 60.457031 C 199.632812 60.511719 199.375 60.59375 199.125 60.683594 L 86.453125 93.792969 Z M 58.5 101.671875 L 96.613281 71.539062 L 21.878906 71.539062 C 17.738281 71.539062 13.96875 73.238281 11.238281 75.96875 C 8.507812 78.699219 6.808594 82.464844 6.808594 86.601562 C 6.808594 90.738281 8.507812 94.507812 11.238281 97.242188 C 13.96875 99.972656 17.738281 101.671875 21.878906 101.671875 Z M 58.5 101.671875 " fill-opacity="1" fill-rule="evenodd"/></g></svg>