<svg xmlns="http://www.w3.org/2000/svg" xmlns:xlink="http://www.w3.org/1999/xlink" width="500" zoomAndPan="magnify" viewBox="0 0 375 374.999991" height="500" preserveAspectRatio="xMidYMid meet" version="1.0"><defs><clipPath id="c7ca8765ed"><path d="M 29.0625 203 L 346 203 L 346 375 L 29.0625 375 Z M 29.0625 203 " clip-rule="nonzero"/></clipPath></defs><path fill="#b4b4b4" d="M 280.242188 91.265625 C 280.242188 92.761719 280.203125 94.25 280.128906 95.742188 C 280.054688 97.234375 279.945312 98.722656 279.792969 100.207031 C 279.644531 101.695312 279.460938 103.175781 279.238281 104.652344 C 279.015625 106.128906 278.753906 107.597656 278.460938 109.0625 C 278.164062 110.527344 277.832031 111.984375 277.460938 113.429688 C 277.09375 114.878906 276.6875 116.316406 276.25 117.746094 C 275.808594 119.175781 275.332031 120.589844 274.820312 121.996094 C 274.308594 123.402344 273.761719 124.796875 273.183594 126.175781 C 272.601562 127.554688 271.984375 128.917969 271.335938 130.265625 C 270.6875 131.617188 270.007812 132.949219 269.289062 134.265625 C 268.574219 135.582031 267.828125 136.882812 267.046875 138.164062 C 266.265625 139.441406 265.453125 140.703125 264.613281 141.945312 C 263.769531 143.1875 262.894531 144.40625 261.992188 145.605469 C 261.085938 146.804688 260.152344 147.980469 259.191406 149.132812 C 258.226562 150.289062 257.234375 151.417969 256.21875 152.523438 C 255.199219 153.632812 254.152344 154.710938 253.078125 155.765625 C 252.003906 156.824219 250.90625 157.851562 249.78125 158.855469 C 248.65625 159.855469 247.507812 160.832031 246.335938 161.777344 C 245.160156 162.726562 243.964844 163.644531 242.746094 164.535156 C 241.527344 165.421875 240.285156 166.28125 239.023438 167.113281 C 237.761719 167.941406 236.480469 168.738281 235.179688 169.507812 C 233.875 170.273438 232.554688 171.007812 231.21875 171.714844 C 229.878906 172.417969 228.523438 173.089844 227.152344 173.726562 C 225.78125 174.363281 224.394531 174.96875 222.992188 175.539062 C 221.589844 176.113281 220.171875 176.648438 218.742188 177.152344 C 217.316406 177.65625 215.875 178.125 214.421875 178.554688 C 212.96875 178.988281 211.507812 179.386719 210.035156 179.75 C 208.5625 180.113281 207.082031 180.441406 205.59375 180.730469 C 204.105469 181.023438 202.609375 181.277344 201.109375 181.496094 C 199.605469 181.714844 198.101562 181.898438 196.589844 182.046875 C 195.078125 182.191406 193.566406 182.300781 192.050781 182.375 C 190.535156 182.449219 189.019531 182.484375 187.5 182.484375 C 185.980469 182.484375 184.464844 182.449219 182.949219 182.375 C 181.433594 182.300781 179.921875 182.191406 178.410156 182.046875 C 176.898438 181.898438 175.394531 181.714844 173.890625 181.496094 C 172.390625 181.277344 170.894531 181.023438 169.40625 180.730469 C 167.917969 180.441406 166.4375 180.113281 164.964844 179.75 C 163.492188 179.386719 162.03125 178.988281 160.578125 178.554688 C 159.125 178.125 157.683594 177.65625 156.257812 177.152344 C 154.828125 176.648438 153.410156 176.113281 152.007812 175.539062 C 150.605469 174.96875 149.21875 174.363281 147.847656 173.726562 C 146.476562 173.089844 145.121094 172.417969 143.78125 171.714844 C 142.445312 171.007812 141.125 170.273438 139.820312 169.507812 C 138.519531 168.738281 137.238281 167.941406 135.976562 167.113281 C 134.714844 166.28125 133.472656 165.421875 132.253906 164.535156 C 131.035156 163.644531 129.839844 162.726562 128.664062 161.777344 C 127.492188 160.832031 126.34375 159.855469 125.21875 158.855469 C 124.09375 157.851562 122.996094 156.824219 121.921875 155.765625 C 120.847656 154.710938 119.800781 153.632812 118.78125 152.523438 C 117.765625 151.417969 116.773438 150.289062 115.808594 149.132812 C 114.847656 147.980469 113.914062 146.804688 113.007812 145.605469 C 112.105469 144.40625 111.230469 143.1875 110.386719 141.945312 C 109.546875 140.703125 108.734375 139.441406 107.953125 138.164062 C 107.171875 136.882812 106.425781 135.582031 105.710938 134.265625 C 104.992188 132.949219 104.3125 131.617188 103.664062 130.265625 C 103.015625 128.917969 102.398438 127.554688 101.816406 126.175781 C 101.238281 124.796875 100.691406 123.402344 100.179688 121.996094 C 99.667969 120.589844 99.191406 119.175781 98.75 117.746094 C 98.3125 116.316406 97.90625 114.878906 97.539062 113.429688 C 97.167969 111.984375 96.835938 110.527344 96.539062 109.0625 C 96.246094 107.597656 95.984375 106.128906 95.761719 104.652344 C 95.539062 103.175781 95.355469 101.695312 95.203125 100.207031 C 95.054688 98.722656 94.945312 97.234375 94.871094 95.742188 C 94.796875 94.25 94.757812 92.761719 94.757812 91.265625 C 94.757812 89.773438 94.796875 88.28125 94.871094 86.792969 C 94.945312 85.300781 95.054688 83.8125 95.203125 82.328125 C 95.355469 80.839844 95.539062 79.359375 95.761719 77.882812 C 95.984375 76.40625 96.246094 74.9375 96.539062 73.472656 C 96.835938 72.007812 97.167969 70.550781 97.539062 69.101562 C 97.90625 67.65625 98.3125 66.214844 98.75 64.789062 C 99.191406 63.359375 99.667969 61.941406 100.179688 60.535156 C 100.691406 59.132812 101.238281 57.738281 101.816406 56.359375 C 102.398438 54.980469 103.015625 53.617188 103.664062 52.265625 C 104.3125 50.917969 104.992188 49.585938 105.710938 48.269531 C 106.425781 46.949219 107.171875 45.652344 107.953125 44.371094 C 108.734375 43.089844 109.546875 41.832031 110.386719 40.589844 C 111.230469 39.347656 112.105469 38.128906 113.007812 36.929688 C 113.914062 35.730469 114.847656 34.554688 115.808594 33.398438 C 116.773438 32.246094 117.765625 31.117188 118.78125 30.007812 C 119.800781 28.902344 120.847656 27.824219 121.921875 26.765625 C 122.996094 25.710938 124.09375 24.683594 125.21875 23.679688 C 126.34375 22.675781 127.492188 21.703125 128.664062 20.753906 C 129.839844 19.808594 131.035156 18.890625 132.253906 18 C 133.472656 17.113281 134.714844 16.253906 135.976562 15.421875 C 137.238281 14.59375 138.519531 13.796875 139.820312 13.027344 C 141.125 12.261719 142.445312 11.523438 143.78125 10.820312 C 145.121094 10.117188 146.476562 9.445312 147.847656 8.808594 C 149.21875 8.167969 150.605469 7.566406 152.007812 6.992188 C 153.410156 6.421875 154.828125 5.886719 156.257812 5.382812 C 157.683594 4.878906 159.125 4.410156 160.578125 3.976562 C 162.03125 3.542969 163.492188 3.144531 164.964844 2.785156 C 166.4375 2.421875 167.917969 2.09375 169.40625 1.804688 C 170.894531 1.511719 172.390625 1.257812 173.890625 1.039062 C 175.394531 0.816406 176.898438 0.636719 178.410156 0.488281 C 179.921875 0.34375 181.433594 0.234375 182.949219 0.160156 C 184.464844 0.0859375 185.980469 0.0507812 187.5 0.0507812 C 189.019531 0.0507812 190.535156 0.0859375 192.050781 0.160156 C 193.566406 0.234375 195.078125 0.34375 196.589844 0.488281 C 198.101562 0.636719 199.605469 0.816406 201.109375 1.039062 C 202.609375 1.257812 204.105469 1.511719 205.59375 1.804688 C 207.082031 2.09375 208.5625 2.421875 210.035156 2.785156 C 211.507812 3.144531 212.96875 3.542969 214.421875 3.976562 C 215.875 4.410156 217.316406 4.878906 218.742188 5.382812 C 220.171875 5.886719 221.589844 6.421875 222.992188 6.992188 C 224.394531 7.566406 225.78125 8.167969 227.152344 8.808594 C 228.523438 9.445312 229.878906 10.117188 231.21875 10.820312 C 232.554688 11.523438 233.875 12.261719 235.179688 13.027344 C 236.480469 13.796875 237.761719 14.59375 239.023438 15.421875 C 240.285156 16.253906 241.527344 17.113281 242.746094 18 C 243.964844 18.890625 245.160156 19.808594 246.335938 20.753906 C 247.507812 21.703125 248.65625 22.675781 249.78125 23.679688 C 250.90625 24.683594 252.003906 25.710938 253.078125 26.765625 C 254.152344 27.824219 255.199219 28.902344 256.21875 30.007812 C 257.234375 31.117188 258.226562 32.246094 259.191406 33.398438 C 260.152344 34.554688 261.085938 35.730469 261.992188 36.929688 C 262.894531 38.128906 263.769531 39.347656 264.613281 40.589844 C 265.453125 41.832031 266.265625 43.089844 267.046875 44.371094 C 267.828125 45.652344 268.574219 46.949219 269.289062 48.269531 C 270.007812 49.585938 270.6875 50.917969 271.335938 52.265625 C 271.984375 53.617188 272.601562 54.980469 273.183594 56.359375 C 273.761719 57.738281 274.308594 59.132812 274.820312 60.535156 C 275.332031 61.941406 275.808594 63.359375 276.25 64.789062 C 276.6875 66.214844 277.09375 67.65625 277.460938 69.101562 C 277.832031 70.550781 278.164062 72.007812 278.460938 73.472656 C 278.753906 74.9375 279.015625 76.40625 279.238281 77.882812 C 279.460938 79.359375 279.644531 80.839844 279.796875 82.328125 C 279.945312 83.8125 280.054688 85.300781 280.128906 86.792969 C 280.203125 88.28125 280.242188 89.773438 280.242188 91.265625 Z M 280.242188 91.265625 " fill-opacity="1" fill-rule="nonzero"/><g clip-path="url(#c7ca8765ed)"><path fill="#b4b4b4" d="M 232.246094 203.726562 L 142.753906 203.726562 C 79.957031 203.726562 29.0625 273.800781 29.0625 336.59375 C 29.0625 357.789062 46.222656 374.949219 67.417969 374.949219 L 307.582031 374.949219 C 328.777344 374.949219 345.9375 357.789062 345.9375 336.59375 C 345.9375 273.800781 295.042969 203.726562 232.246094 203.726562 Z M 232.246094 203.726562 " fill-opacity="1" fill-rule="nonzero"/></g></svg>