<svg xmlns="http://www.w3.org/2000/svg" xmlns:xlink="http://www.w3.org/1999/xlink" width="500" zoomAndPan="magnify" viewBox="0 0 375 374.999991" height="500" preserveAspectRatio="xMidYMid meet" version="1.0"><defs><clipPath id="fede0dfd60"><path d="M 0 22 L 369 22 L 369 357.761719 L 0 357.761719 Z M 0 22 " clip-rule="nonzero"/></clipPath><clipPath id="135159b73a"><path d="M 0 22 L 369 22 L 369 140 L 0 140 Z M 0 22 " clip-rule="nonzero"/></clipPath><clipPath id="c3dc085c9a"><path d="M 50 5.261719 L 84 5.261719 L 84 64 L 50 64 Z M 50 5.261719 " clip-rule="nonzero"/></clipPath><clipPath id="622a7bc9ed"><path d="M 167 5.261719 L 202 5.261719 L 202 64 L 167 64 Z M 167 5.261719 " clip-rule="nonzero"/></clipPath><clipPath id="be3c7cbd71"><path d="M 285 5.261719 L 319 5.261719 L 319 64 L 285 64 Z M 285 5.261719 " clip-rule="nonzero"/></clipPath></defs><g clip-path="url(#fede0dfd60)"><path fill="#d8ff3d" d="M 0.00390625 72.367188 C 0.00390625 44.570312 22.535156 22.035156 50.332031 22.035156 L 318.75 22.035156 C 346.546875 22.035156 369.078125 44.570312 369.078125 72.367188 L 369.078125 307.234375 C 369.078125 335.027344 346.546875 357.5625 318.75 357.5625 L 50.332031 357.5625 C 22.535156 357.5625 0.00390625 335.027344 0.00390625 307.234375 Z M 50.332031 55.589844 C 41.066406 55.589844 33.554688 63.101562 33.554688 72.367188 L 33.554688 307.234375 C 33.554688 316.5 41.066406 324.007812 50.332031 324.007812 L 318.75 324.007812 C 328.015625 324.007812 335.527344 316.5 335.527344 307.234375 L 335.527344 72.367188 C 335.527344 63.101562 328.015625 55.589844 318.75 55.589844 Z M 50.332031 55.589844 " fill-opacity="1" fill-rule="evenodd"/></g><g clip-path="url(#135159b73a)"><path fill="#d8ff3d" d="M 0.00390625 72.367188 C 0.00390625 44.570312 22.535156 22.035156 50.332031 22.035156 L 318.75 22.035156 C 346.546875 22.035156 369.078125 44.570312 369.078125 72.367188 L 369.078125 122.695312 C 369.078125 131.960938 361.570312 139.46875 352.304688 139.46875 L 16.777344 139.46875 C 7.511719 139.46875 0.00390625 131.960938 0.00390625 122.695312 Z M 50.332031 55.589844 C 41.066406 55.589844 33.554688 63.101562 33.554688 72.367188 L 33.554688 105.917969 L 335.527344 105.917969 L 335.527344 72.367188 C 335.527344 63.101562 328.015625 55.589844 318.75 55.589844 Z M 50.332031 55.589844 " fill-opacity="1" fill-rule="evenodd"/></g><g clip-path="url(#c3dc085c9a)"><path fill="#d8ff3d" d="M 50.332031 5.261719 L 83.882812 5.261719 L 83.882812 63.976562 L 50.332031 63.976562 Z M 50.332031 5.261719 " fill-opacity="1" fill-rule="evenodd"/></g><g clip-path="url(#622a7bc9ed)"><path fill="#d8ff3d" d="M 167.765625 5.261719 L 201.316406 5.261719 L 201.316406 63.976562 L 167.765625 63.976562 Z M 167.765625 5.261719 " fill-opacity="1" fill-rule="evenodd"/></g><g clip-path="url(#be3c7cbd71)"><path fill="#d8ff3d" d="M 285.199219 5.261719 L 318.75 5.261719 L 318.75 63.976562 L 285.199219 63.976562 Z M 285.199219 5.261719 " fill-opacity="1" fill-rule="evenodd"/></g><path fill="#d8ff3d" d="M 75.496094 173.023438 L 109.046875 173.023438 L 109.046875 206.574219 L 75.496094 206.574219 Z M 75.496094 173.023438 " fill-opacity="1" fill-rule="evenodd"/><path fill="#d8ff3d" d="M 75.496094 240.128906 L 109.046875 240.128906 L 109.046875 273.679688 L 75.496094 273.679688 Z M 75.496094 240.128906 " fill-opacity="1" fill-rule="evenodd"/><path fill="#d8ff3d" d="M 167.765625 173.023438 L 201.316406 173.023438 L 201.316406 206.574219 L 167.765625 206.574219 Z M 167.765625 173.023438 " fill-opacity="1" fill-rule="evenodd"/><path fill="#d8ff3d" d="M 167.765625 240.128906 L 201.316406 240.128906 L 201.316406 273.679688 L 167.765625 273.679688 Z M 167.765625 240.128906 " fill-opacity="1" fill-rule="evenodd"/><path fill="#d8ff3d" d="M 260.035156 173.023438 L 293.585938 173.023438 L 293.585938 206.574219 L 260.035156 206.574219 Z M 260.035156 173.023438 " fill-opacity="1" fill-rule="evenodd"/><path fill="#d8ff3d" d="M 260.035156 240.128906 L 293.585938 240.128906 L 293.585938 273.679688 L 260.035156 273.679688 Z M 260.035156 240.128906 " fill-opacity="1" fill-rule="evenodd"/></svg>