<svg xmlns="http://www.w3.org/2000/svg" xmlns:xlink="http://www.w3.org/1999/xlink" width="500" zoomAndPan="magnify" viewBox="0 0 375 374.999991" height="500" preserveAspectRatio="xMidYMid meet" version="1.0"><defs><clipPath id="77481b9de2"><path d="M 4.273438 4.273438 L 371 4.273438 L 371 371 L 4.273438 371 Z M 4.273438 4.273438 " clip-rule="nonzero"/></clipPath></defs><g clip-path="url(#77481b9de2)"><path fill="#d8ff3d" d="M 187.40625 4.273438 C 86.175781 4.273438 4.273438 86.265625 4.273438 187.496094 C 4.273438 288.726562 86.175781 370.71875 187.40625 370.71875 C 288.636719 370.71875 370.71875 288.726562 370.71875 187.496094 C 370.71875 86.265625 288.636719 4.273438 187.40625 4.273438 Z M 187.496094 334.074219 C 106.511719 334.074219 40.917969 268.480469 40.917969 187.496094 C 40.917969 106.511719 106.511719 40.917969 187.496094 40.917969 C 268.480469 40.917969 334.074219 106.511719 334.074219 187.496094 C 334.074219 268.480469 268.480469 334.074219 187.496094 334.074219 Z M 187.496094 334.074219 " fill-opacity="1" fill-rule="nonzero"/></g><path fill="#d8ff3d" d="M 196.65625 95.886719 L 169.175781 95.886719 L 169.175781 205.820312 L 265.273438 263.535156 L 279.105469 240.996094 L 196.65625 192.078125 Z M 196.65625 95.886719 " fill-opacity="1" fill-rule="nonzero"/></svg>