<svg xmlns="http://www.w3.org/2000/svg" xmlns:xlink="http://www.w3.org/1999/xlink" width="500" zoomAndPan="magnify" viewBox="0 0 375 374.999991" height="500" preserveAspectRatio="xMidYMid meet" version="1.0"><defs><clipPath id="8885bd39c5"><path d="M 59 105 L 313 105 L 313 356.25 L 59 356.25 Z M 59 105 " clip-rule="nonzero"/></clipPath><clipPath id="dda236540c"><path d="M 6 18.75 L 367 18.75 L 367 220 L 6 220 Z M 6 18.75 " clip-rule="nonzero"/></clipPath></defs><g clip-path="url(#8885bd39c5)"><path fill="#000000" d="M 59.78125 333.335938 L 60.164062 223.566406 C 60.171875 222.078125 60.328125 220.609375 60.636719 219.15625 C 60.949219 217.699219 61.402344 216.292969 62.003906 214.933594 C 62.601562 213.574219 63.335938 212.289062 64.199219 211.082031 C 65.066406 209.871094 66.046875 208.765625 67.136719 207.757812 L 171.949219 111.402344 C 172.441406 110.949219 172.953125 110.523438 173.484375 110.117188 C 174.015625 109.714844 174.5625 109.335938 175.128906 108.980469 C 175.691406 108.628906 176.273438 108.300781 176.871094 108.003906 C 177.464844 107.703125 178.074219 107.433594 178.695312 107.191406 C 179.316406 106.945312 179.945312 106.734375 180.589844 106.546875 C 181.230469 106.363281 181.875 106.210938 182.53125 106.085938 C 183.1875 105.960938 183.847656 105.867188 184.511719 105.804688 C 185.175781 105.742188 185.839844 105.710938 186.507812 105.707031 C 187.171875 105.707031 187.839844 105.734375 188.503906 105.796875 C 189.167969 105.855469 189.828125 105.949219 190.480469 106.070312 C 191.136719 106.191406 191.785156 106.34375 192.429688 106.523438 C 193.070312 106.707031 193.703125 106.917969 194.324219 107.15625 C 194.945312 107.398438 195.554688 107.667969 196.152344 107.964844 C 196.75 108.261719 197.332031 108.585938 197.898438 108.933594 C 198.464844 109.285156 199.015625 109.664062 199.546875 110.0625 C 200.078125 110.464844 200.59375 110.890625 201.085938 111.339844 L 305.738281 206.726562 C 306.847656 207.738281 307.839844 208.855469 308.71875 210.074219 C 309.59375 211.292969 310.335938 212.589844 310.941406 213.960938 C 311.546875 215.335938 312.007812 216.757812 312.316406 218.226562 C 312.625 219.699219 312.78125 221.183594 312.78125 222.683594 L 312.78125 334.148438 C 312.78125 334.851562 312.746094 335.554688 312.679688 336.257812 C 312.609375 336.960938 312.507812 337.65625 312.371094 338.347656 C 312.234375 339.039062 312.0625 339.722656 311.859375 340.398438 C 311.65625 341.070312 311.417969 341.734375 311.148438 342.386719 C 310.878906 343.039062 310.582031 343.675781 310.25 344.296875 C 309.917969 344.917969 309.558594 345.523438 309.167969 346.109375 C 308.777344 346.695312 308.359375 347.261719 307.914062 347.808594 C 307.46875 348.355469 306.996094 348.878906 306.5 349.378906 C 306 349.878906 305.480469 350.351562 304.9375 350.800781 C 304.394531 351.25 303.832031 351.667969 303.246094 352.0625 C 302.660156 352.457031 302.058594 352.820312 301.4375 353.15625 C 300.820312 353.488281 300.183594 353.792969 299.535156 354.066406 C 298.882812 354.335938 298.222656 354.578125 297.546875 354.785156 C 296.875 354.992188 296.191406 355.164062 295.503906 355.304688 C 294.8125 355.445312 294.117188 355.550781 293.414062 355.625 C 292.714844 355.695312 292.011719 355.734375 291.308594 355.738281 L 238.902344 356.007812 C 238.191406 356.011719 237.484375 355.980469 236.777344 355.914062 C 236.074219 355.847656 235.371094 355.75 234.675781 355.613281 C 233.980469 355.476562 233.292969 355.308594 232.613281 355.105469 C 231.933594 354.902344 231.265625 354.667969 230.609375 354.398438 C 229.953125 354.128906 229.3125 353.828125 228.683594 353.496094 C 228.058594 353.164062 227.449219 352.800781 226.859375 352.410156 C 226.269531 352.019531 225.699219 351.597656 225.148438 351.148438 C 224.597656 350.699219 224.074219 350.226562 223.570312 349.726562 C 223.066406 349.226562 222.589844 348.703125 222.140625 348.152344 C 221.6875 347.605469 221.265625 347.039062 220.871094 346.449219 C 220.472656 345.859375 220.109375 345.253906 219.773438 344.628906 C 219.4375 344.003906 219.136719 343.363281 218.863281 342.707031 C 218.589844 342.050781 218.351562 341.386719 218.144531 340.707031 C 217.9375 340.027344 217.765625 339.339844 217.625 338.644531 C 217.488281 337.949219 217.382812 337.25 217.3125 336.542969 C 217.242188 335.835938 217.210938 335.128906 217.210938 334.417969 L 217.210938 266.722656 C 217.226562 263.851562 216.679688 261.089844 215.570312 258.441406 C 214.945312 256.957031 214.214844 255.523438 213.375 254.152344 C 212.535156 252.777344 211.59375 251.472656 210.554688 250.242188 C 209.515625 249.011719 208.386719 247.867188 207.171875 246.8125 C 205.957031 245.753906 204.671875 244.792969 203.308594 243.933594 C 201.949219 243.070312 200.527344 242.316406 199.054688 241.675781 C 197.578125 241.03125 196.058594 240.5 194.503906 240.089844 C 192.945312 239.675781 191.367188 239.386719 189.765625 239.214844 C 188.164062 239.046875 186.558594 238.996094 184.949219 239.070312 C 183.339844 239.148438 181.746094 239.34375 180.167969 239.664062 C 178.589844 239.980469 177.046875 240.417969 175.53125 240.972656 C 174.019531 241.527344 172.558594 242.195312 171.148438 242.972656 C 169.742188 243.753906 168.398438 244.632812 167.121094 245.617188 C 165.847656 246.601562 164.652344 247.675781 163.542969 248.84375 C 162.429688 250.007812 161.414062 251.253906 160.496094 252.574219 C 159.574219 253.898438 158.757812 255.28125 158.050781 256.726562 C 157.339844 258.175781 156.746094 259.667969 156.261719 261.203125 C 155.621094 263.25 155.304688 265.34375 155.324219 267.488281 C 155.324219 289.375 155.324219 311.257812 155.324219 333.132812 C 155.324219 333.835938 155.289062 334.539062 155.21875 335.242188 C 155.152344 335.945312 155.046875 336.640625 154.910156 337.332031 C 154.773438 338.023438 154.605469 338.707031 154.402344 339.382812 C 154.199219 340.054688 153.960938 340.71875 153.691406 341.371094 C 153.425781 342.023438 153.125 342.660156 152.792969 343.28125 C 152.460938 343.90625 152.101562 344.511719 151.710938 345.097656 C 151.320312 345.683594 150.902344 346.25 150.457031 346.796875 C 150.011719 347.34375 149.542969 347.867188 149.046875 348.367188 C 148.546875 348.867188 148.027344 349.339844 147.484375 349.789062 C 146.941406 350.238281 146.378906 350.660156 145.792969 351.054688 C 145.210938 351.449219 144.605469 351.8125 143.988281 352.148438 C 143.367188 352.480469 142.730469 352.785156 142.082031 353.058594 C 141.433594 353.332031 140.769531 353.570312 140.097656 353.777344 C 139.421875 353.984375 138.742188 354.160156 138.050781 354.300781 C 137.359375 354.441406 136.664062 354.550781 135.964844 354.621094 C 135.261719 354.695312 134.5625 354.734375 133.855469 354.738281 L 81.511719 355 C 80.796875 355.003906 80.089844 354.976562 79.378906 354.910156 C 78.671875 354.84375 77.96875 354.742188 77.269531 354.609375 C 76.570312 354.472656 75.882812 354.304688 75.199219 354.101562 C 74.519531 353.898438 73.847656 353.660156 73.1875 353.390625 C 72.53125 353.121094 71.886719 352.820312 71.257812 352.488281 C 70.628906 352.152344 70.019531 351.789062 69.425781 351.398438 C 68.835938 351.003906 68.261719 350.582031 67.710938 350.128906 C 67.160156 349.679688 66.632812 349.203125 66.128906 348.703125 C 65.625 348.199219 65.148438 347.671875 64.695312 347.125 C 64.242188 346.574219 63.820312 346.003906 63.425781 345.410156 C 63.027344 344.820312 62.664062 344.210938 62.328125 343.582031 C 61.992188 342.953125 61.6875 342.3125 61.417969 341.65625 C 61.144531 340.996094 60.90625 340.328125 60.699219 339.644531 C 60.496094 338.964844 60.324219 338.273438 60.1875 337.574219 C 60.050781 336.878906 59.945312 336.175781 59.878906 335.464844 C 59.808594 334.757812 59.777344 334.046875 59.78125 333.335938 Z M 59.78125 333.335938 " fill-opacity="1" fill-rule="nonzero"/></g><g clip-path="url(#dda236540c)"><path fill="#000000" d="M 360.15625 185.566406 L 302.4375 127.253906 L 302.4375 52.730469 C 302.433594 51.734375 302.335938 50.746094 302.140625 49.769531 C 301.945312 48.789062 301.65625 47.839844 301.273438 46.921875 C 300.890625 46 300.421875 45.125 299.867188 44.296875 C 299.3125 43.46875 298.683594 42.703125 297.980469 41.996094 C 297.273438 41.292969 296.507812 40.664062 295.675781 40.109375 C 294.847656 39.558594 293.972656 39.089844 293.054688 38.710938 C 292.132812 38.328125 291.183594 38.039062 290.207031 37.847656 C 289.226562 37.652344 288.242188 37.554688 287.246094 37.554688 L 277.238281 37.554688 C 276.238281 37.554688 275.253906 37.652344 274.273438 37.847656 C 273.296875 38.042969 272.34375 38.328125 271.425781 38.710938 C 270.503906 39.09375 269.628906 39.5625 268.796875 40.117188 C 267.96875 40.671875 267.199219 41.300781 266.496094 42.007812 C 265.789062 42.710938 265.160156 43.480469 264.605469 44.308594 C 264.050781 45.140625 263.585938 46.015625 263.203125 46.9375 C 262.820312 47.859375 262.53125 48.808594 262.339844 49.789062 C 262.144531 50.765625 262.046875 51.753906 262.046875 52.753906 L 262.046875 86.484375 L 201.101562 24.9375 C 200.632812 24.464844 200.144531 24.019531 199.636719 23.59375 C 199.125 23.171875 198.59375 22.773438 198.046875 22.40625 C 197.496094 22.035156 196.929688 21.691406 196.347656 21.375 C 195.761719 21.0625 195.164062 20.773438 194.554688 20.519531 C 193.941406 20.261719 193.320312 20.039062 192.683594 19.84375 C 192.050781 19.648438 191.410156 19.488281 190.757812 19.355469 C 190.109375 19.226562 189.453125 19.125 188.796875 19.0625 C 188.136719 18.996094 187.476562 18.960938 186.8125 18.960938 C 186.148438 18.960938 185.488281 18.992188 184.828125 19.054688 C 184.167969 19.121094 183.511719 19.214844 182.863281 19.347656 C 182.210938 19.476562 181.570312 19.636719 180.9375 19.828125 C 180.300781 20.019531 179.679688 20.246094 179.066406 20.5 C 178.453125 20.753906 177.855469 21.039062 177.269531 21.351562 C 176.6875 21.664062 176.121094 22.003906 175.570312 22.375 C 175.019531 22.746094 174.488281 23.140625 173.976562 23.5625 C 173.464844 23.984375 172.976562 24.429688 172.507812 24.898438 L 12.601562 185.519531 C -0.0390625 198.21875 8.953125 219.875 26.898438 219.875 C 28.21875 219.875 29.527344 219.746094 30.820312 219.488281 C 32.117188 219.230469 33.375 218.847656 34.59375 218.34375 C 35.8125 217.839844 36.972656 217.21875 38.070312 216.488281 C 39.167969 215.753906 40.183594 214.921875 41.121094 213.988281 L 172.230469 83.015625 C 172.695312 82.546875 173.183594 82.105469 173.691406 81.6875 C 174.203125 81.269531 174.730469 80.878906 175.277344 80.511719 C 175.828125 80.148438 176.390625 79.808594 176.972656 79.5 C 177.554688 79.1875 178.148438 78.90625 178.757812 78.65625 C 179.367188 78.402344 179.984375 78.179688 180.613281 77.988281 C 181.246094 77.800781 181.882812 77.640625 182.53125 77.511719 C 183.175781 77.382812 183.828125 77.285156 184.484375 77.222656 C 185.136719 77.15625 185.796875 77.125 186.453125 77.125 C 187.113281 77.125 187.769531 77.15625 188.425781 77.222656 C 189.082031 77.285156 189.730469 77.382812 190.378906 77.511719 C 191.023438 77.640625 191.664062 77.800781 192.292969 77.988281 C 192.921875 78.179688 193.542969 78.402344 194.152344 78.65625 C 194.761719 78.90625 195.355469 79.1875 195.9375 79.5 C 196.515625 79.808594 197.082031 80.148438 197.628906 80.511719 C 198.175781 80.878906 198.707031 81.269531 199.214844 81.6875 C 199.726562 82.105469 200.210938 82.546875 200.679688 83.015625 C 244.320312 126.675781 287.960938 170.335938 331.601562 213.996094 C 332.535156 214.933594 333.550781 215.769531 334.652344 216.503906 C 335.75 217.238281 336.910156 217.859375 338.132812 218.367188 C 339.351562 218.871094 340.613281 219.253906 341.90625 219.511719 C 343.203125 219.769531 344.515625 219.898438 345.835938 219.898438 L 345.886719 219.898438 C 363.734375 219.875 372.742188 198.28125 360.15625 185.566406 Z M 360.15625 185.566406 " fill-opacity="1" fill-rule="nonzero"/></g></svg>