<svg xmlns="http://www.w3.org/2000/svg" xmlns:xlink="http://www.w3.org/1999/xlink" width="500" zoomAndPan="magnify" viewBox="0 0 375 374.999991" height="500" preserveAspectRatio="xMidYMid meet" version="1.0"><defs><clipPath id="c2e4883d7b"><path d="M 6 13.515625 L 369 13.515625 L 369 216 L 6 216 Z M 6 13.515625 " clip-rule="nonzero"/></clipPath></defs><path fill="#b4b4b4" d="M 60.140625 329.851562 L 60.527344 219.46875 C 60.535156 217.976562 60.691406 216.496094 61.003906 215.035156 C 61.316406 213.574219 61.773438 212.15625 62.375 210.789062 C 62.980469 209.421875 63.71875 208.128906 64.589844 206.914062 C 65.457031 205.699219 66.445312 204.585938 67.542969 203.574219 L 172.988281 106.683594 C 173.484375 106.226562 173.996094 105.796875 174.53125 105.390625 C 175.0625 104.984375 175.617188 104.605469 176.183594 104.25 C 176.753906 103.894531 177.339844 103.566406 177.9375 103.265625 C 178.535156 102.964844 179.148438 102.691406 179.773438 102.445312 C 180.398438 102.203125 181.035156 101.988281 181.679688 101.800781 C 182.324219 101.617188 182.972656 101.460938 183.632812 101.335938 C 184.292969 101.210938 184.957031 101.117188 185.625 101.054688 C 186.292969 100.992188 186.960938 100.957031 187.632812 100.957031 C 188.304688 100.957031 188.972656 100.984375 189.640625 101.046875 C 190.308594 101.105469 190.972656 101.199219 191.632812 101.320312 C 192.292969 101.441406 192.945312 101.59375 193.589844 101.777344 C 194.234375 101.960938 194.871094 102.171875 195.496094 102.414062 C 196.121094 102.65625 196.734375 102.925781 197.335938 103.226562 C 197.9375 103.523438 198.523438 103.847656 199.09375 104.203125 C 199.664062 104.554688 200.214844 104.933594 200.75 105.335938 C 201.289062 105.742188 201.804688 106.167969 202.296875 106.621094 L 307.585938 202.535156 C 308.699219 203.554688 309.699219 204.675781 310.582031 205.902344 C 311.464844 207.128906 312.210938 208.433594 312.820312 209.8125 C 313.429688 211.195312 313.890625 212.625 314.203125 214.101562 C 314.511719 215.582031 314.667969 217.074219 314.671875 218.585938 L 314.671875 330.667969 C 314.671875 331.375 314.636719 332.082031 314.566406 332.789062 C 314.496094 333.496094 314.394531 334.195312 314.253906 334.890625 C 314.117188 335.585938 313.945312 336.273438 313.742188 336.949219 C 313.535156 337.628906 313.296875 338.296875 313.027344 338.953125 C 312.757812 339.605469 312.457031 340.246094 312.121094 340.871094 C 311.789062 341.5 311.425781 342.105469 311.035156 342.695312 C 310.640625 343.285156 310.21875 343.855469 309.773438 344.40625 C 309.324219 344.953125 308.847656 345.480469 308.347656 345.980469 C 307.847656 346.484375 307.324219 346.960938 306.777344 347.414062 C 306.230469 347.863281 305.664062 348.285156 305.078125 348.683594 C 304.488281 349.078125 303.882812 349.445312 303.257812 349.78125 C 302.632812 350.117188 301.996094 350.421875 301.339844 350.695312 C 300.6875 350.96875 300.023438 351.210938 299.34375 351.417969 C 298.667969 351.625 297.980469 351.800781 297.285156 351.941406 C 296.59375 352.082031 295.890625 352.191406 295.1875 352.261719 C 294.480469 352.335938 293.773438 352.375 293.066406 352.378906 L 240.34375 352.648438 C 239.628906 352.652344 238.917969 352.621094 238.207031 352.554688 C 237.496094 352.488281 236.792969 352.386719 236.09375 352.253906 C 235.390625 352.117188 234.699219 351.945312 234.015625 351.742188 C 233.332031 351.539062 232.660156 351.300781 232 351.03125 C 231.339844 350.761719 230.695312 350.457031 230.066406 350.125 C 229.433594 349.789062 228.824219 349.425781 228.226562 349.03125 C 227.632812 348.636719 227.058594 348.214844 226.507812 347.761719 C 225.953125 347.3125 225.425781 346.835938 224.917969 346.332031 C 224.414062 345.828125 223.933594 345.300781 223.480469 344.75 C 223.027344 344.203125 222.601562 343.628906 222.203125 343.039062 C 221.804688 342.445312 221.4375 341.835938 221.101562 341.207031 C 220.761719 340.578125 220.457031 339.933594 220.183594 339.273438 C 219.910156 338.617188 219.667969 337.945312 219.460938 337.261719 C 219.253906 336.582031 219.078125 335.890625 218.941406 335.191406 C 218.800781 334.492188 218.695312 333.785156 218.625 333.074219 C 218.554688 332.367188 218.519531 331.652344 218.519531 330.941406 L 218.519531 262.867188 C 218.539062 259.976562 217.988281 257.203125 216.871094 254.539062 C 216.246094 253.046875 215.507812 251.609375 214.664062 250.226562 C 213.816406 248.84375 212.871094 247.535156 211.824219 246.296875 C 210.777344 245.058594 209.644531 243.910156 208.421875 242.84375 C 207.203125 241.78125 205.90625 240.816406 204.535156 239.949219 C 203.167969 239.082031 201.738281 238.328125 200.253906 237.679688 C 198.769531 237.03125 197.242188 236.5 195.675781 236.085938 C 194.109375 235.671875 192.523438 235.378906 190.910156 235.207031 C 189.300781 235.035156 187.683594 234.988281 186.066406 235.0625 C 184.449219 235.136719 182.84375 235.335938 181.257812 235.65625 C 179.667969 235.976562 178.113281 236.417969 176.59375 236.972656 C 175.070312 237.53125 173.601562 238.203125 172.183594 238.984375 C 170.765625 239.769531 169.414062 240.65625 168.132812 241.644531 C 166.847656 242.632812 165.648438 243.714844 164.53125 244.886719 C 163.410156 246.0625 162.390625 247.3125 161.464844 248.640625 C 160.535156 249.96875 159.71875 251.363281 159.003906 252.816406 C 158.289062 254.273438 157.691406 255.773438 157.207031 257.316406 C 156.558594 259.375 156.242188 261.480469 156.261719 263.640625 C 156.261719 285.644531 156.261719 307.648438 156.261719 329.644531 C 156.261719 330.355469 156.226562 331.0625 156.15625 331.769531 C 156.089844 332.472656 155.984375 333.171875 155.847656 333.871094 C 155.710938 334.566406 155.539062 335.25 155.332031 335.929688 C 155.128906 336.609375 154.890625 337.277344 154.621094 337.929688 C 154.351562 338.585938 154.050781 339.226562 153.714844 339.851562 C 153.382812 340.480469 153.019531 341.085938 152.628906 341.675781 C 152.234375 342.269531 151.816406 342.835938 151.367188 343.386719 C 150.917969 343.9375 150.445312 344.460938 149.945312 344.964844 C 149.445312 345.46875 148.921875 345.945312 148.375 346.394531 C 147.828125 346.847656 147.261719 347.273438 146.671875 347.667969 C 146.085938 348.0625 145.480469 348.429688 144.855469 348.765625 C 144.230469 349.101562 143.59375 349.410156 142.9375 349.683594 C 142.285156 349.957031 141.621094 350.199219 140.941406 350.40625 C 140.265625 350.617188 139.578125 350.792969 138.882812 350.933594 C 138.191406 351.074219 137.488281 351.183594 136.785156 351.253906 C 136.078125 351.328125 135.371094 351.367188 134.664062 351.371094 L 82 351.636719 C 81.285156 351.640625 80.570312 351.609375 79.859375 351.542969 C 79.148438 351.476562 78.4375 351.378906 77.734375 351.242188 C 77.035156 351.105469 76.339844 350.9375 75.652344 350.730469 C 74.96875 350.527344 74.292969 350.289062 73.632812 350.019531 C 72.96875 349.746094 72.320312 349.445312 71.6875 349.109375 C 71.054688 348.773438 70.441406 348.40625 69.847656 348.011719 C 69.25 347.617188 68.675781 347.191406 68.121094 346.738281 C 67.566406 346.285156 67.035156 345.808594 66.527344 345.300781 C 66.019531 344.796875 65.539062 344.269531 65.085938 343.714844 C 64.632812 343.164062 64.203125 342.589844 63.808594 341.992188 C 63.410156 341.398438 63.042969 340.785156 62.703125 340.15625 C 62.367188 339.523438 62.0625 338.878906 61.789062 338.214844 C 61.515625 337.554688 61.273438 336.882812 61.066406 336.195312 C 60.859375 335.511719 60.6875 334.816406 60.550781 334.113281 C 60.410156 333.414062 60.308594 332.707031 60.238281 331.992188 C 60.171875 331.28125 60.136719 330.566406 60.140625 329.851562 Z M 60.140625 329.851562 " fill-opacity="1" fill-rule="nonzero"/><g clip-path="url(#c2e4883d7b)"><path fill="#b4b4b4" d="M 362.328125 181.257812 L 304.261719 122.625 L 304.261719 47.683594 C 304.261719 46.683594 304.160156 45.6875 303.964844 44.707031 C 303.765625 43.722656 303.476562 42.769531 303.09375 41.84375 C 302.707031 40.917969 302.234375 40.039062 301.679688 39.203125 C 301.121094 38.371094 300.488281 37.601562 299.777344 36.890625 C 299.066406 36.183594 298.296875 35.550781 297.460938 34.996094 C 296.628906 34.4375 295.75 33.96875 294.820312 33.585938 C 293.894531 33.203125 292.941406 32.914062 291.957031 32.71875 C 290.972656 32.523438 289.980469 32.425781 288.980469 32.425781 L 278.910156 32.425781 C 277.90625 32.425781 276.914062 32.523438 275.929688 32.71875 C 274.945312 32.914062 273.988281 33.203125 273.0625 33.585938 C 272.136719 33.972656 271.253906 34.441406 270.421875 35 C 269.585938 35.558594 268.8125 36.191406 268.105469 36.902344 C 267.394531 37.609375 266.761719 38.382812 266.203125 39.214844 C 265.644531 40.050781 265.175781 40.929688 264.792969 41.859375 C 264.40625 42.785156 264.117188 43.742188 263.921875 44.726562 C 263.726562 45.710938 263.628906 46.703125 263.628906 47.707031 L 263.628906 81.625 L 202.3125 19.738281 C 201.84375 19.261719 201.355469 18.8125 200.839844 18.386719 C 200.328125 17.960938 199.792969 17.5625 199.242188 17.191406 C 198.6875 16.816406 198.117188 16.472656 197.53125 16.15625 C 196.945312 15.839844 196.34375 15.550781 195.726562 15.292969 C 195.113281 15.039062 194.484375 14.8125 193.847656 14.617188 C 193.210938 14.421875 192.566406 14.257812 191.910156 14.125 C 191.257812 13.992188 190.597656 13.894531 189.933594 13.828125 C 189.273438 13.761719 188.605469 13.726562 187.9375 13.726562 C 187.273438 13.726562 186.605469 13.757812 185.945312 13.824219 C 185.28125 13.886719 184.621094 13.984375 183.964844 14.113281 C 183.3125 14.246094 182.667969 14.40625 182.027344 14.601562 C 181.390625 14.792969 180.761719 15.019531 180.148438 15.273438 C 179.53125 15.53125 178.929688 15.816406 178.339844 16.128906 C 177.753906 16.445312 177.183594 16.789062 176.628906 17.160156 C 176.074219 17.53125 175.539062 17.929688 175.027344 18.355469 C 174.511719 18.777344 174.019531 19.226562 173.550781 19.699219 L 12.679688 181.214844 C -0.0390625 193.984375 9.007812 215.761719 27.0625 215.761719 C 28.390625 215.761719 29.703125 215.628906 31.007812 215.371094 C 32.308594 215.109375 33.574219 214.726562 34.800781 214.21875 C 36.027344 213.710938 37.195312 213.089844 38.300781 212.351562 C 39.40625 211.617188 40.425781 210.777344 41.367188 209.839844 L 173.269531 78.136719 C 173.738281 77.667969 174.230469 77.226562 174.742188 76.804688 C 175.253906 76.382812 175.785156 75.988281 176.335938 75.621094 C 176.886719 75.253906 177.457031 74.914062 178.039062 74.601562 C 178.625 74.289062 179.222656 74.007812 179.835938 73.753906 C 180.449219 73.5 181.070312 73.277344 181.707031 73.085938 C 182.339844 72.894531 182.980469 72.730469 183.632812 72.601562 C 184.28125 72.472656 184.9375 72.375 185.597656 72.3125 C 186.253906 72.246094 186.917969 72.214844 187.578125 72.214844 C 188.242188 72.214844 188.902344 72.246094 189.5625 72.3125 C 190.222656 72.375 190.878906 72.472656 191.527344 72.601562 C 192.175781 72.730469 192.820312 72.894531 193.453125 73.085938 C 194.085938 73.277344 194.710938 73.5 195.324219 73.753906 C 195.9375 74.007812 196.535156 74.289062 197.117188 74.601562 C 197.703125 74.914062 198.269531 75.253906 198.824219 75.621094 C 199.375 75.988281 199.90625 76.382812 200.417969 76.804688 C 200.929688 77.226562 201.421875 77.667969 201.890625 78.136719 C 245.792969 122.042969 289.699219 165.945312 333.601562 209.847656 C 334.542969 210.789062 335.566406 211.628906 336.671875 212.367188 C 337.777344 213.109375 338.945312 213.730469 340.171875 214.242188 C 341.402344 214.75 342.667969 215.132812 343.972656 215.394531 C 345.277344 215.652344 346.59375 215.785156 347.921875 215.785156 L 347.976562 215.785156 C 365.929688 215.761719 374.992188 194.042969 362.328125 181.257812 Z M 362.328125 181.257812 " fill-opacity="1" fill-rule="nonzero"/></g></svg>