<svg xmlns="http://www.w3.org/2000/svg" xmlns:xlink="http://www.w3.org/1999/xlink" width="500" zoomAndPan="magnify" viewBox="0 0 375 374.999991" height="500" preserveAspectRatio="xMidYMid meet" version="1.0"><defs><clipPath id="3767b4396e"><path d="M 0 7.785156 L 239 7.785156 L 239 344.535156 L 0 344.535156 Z M 0 7.785156 " clip-rule="nonzero"/></clipPath><clipPath id="10c1d9a678"><path d="M 170 143 L 374 143 L 374 344.535156 L 170 344.535156 Z M 170 143 " clip-rule="nonzero"/></clipPath></defs><g clip-path="url(#3767b4396e)"><path fill="#5c700c" d="M 119.164062 7.785156 C 53.414062 7.785156 0.113281 61.089844 0.113281 126.839844 C 0.113281 246.589844 119.164062 344.375 119.164062 344.375 C 119.164062 344.375 238.214844 246.59375 238.214844 126.839844 C 238.214844 61.089844 184.914062 7.785156 119.164062 7.785156 Z M 119.164062 220.238281 C 69.097656 220.238281 28.511719 179.65625 28.511719 129.589844 C 28.511719 79.523438 69.097656 38.941406 119.164062 38.941406 C 169.226562 38.941406 209.8125 79.527344 209.8125 129.589844 C 209.8125 179.65625 169.226562 220.242188 119.164062 220.242188 Z M 119.164062 220.238281 " fill-opacity="1" fill-rule="nonzero"/></g><path fill="#5c700c" d="M 308.550781 270.359375 C 308.796875 270.605469 309.058594 270.84375 309.328125 271.066406 C 309.867188 271.511719 310.449219 271.90625 311.070312 272.242188 C 312.617188 273.085938 314.390625 273.5625 316.273438 273.5625 C 317.027344 273.5625 317.761719 273.484375 318.472656 273.339844 C 319.183594 273.195312 319.867188 272.980469 320.523438 272.703125 C 321.503906 272.289062 322.410156 271.734375 323.21875 271.066406 C 325.648438 269.058594 327.199219 266.027344 327.199219 262.636719 C 327.199219 260.933594 326.800781 259.328125 326.101562 257.890625 C 325.96875 257.617188 325.828125 257.351562 325.671875 257.089844 C 325.023438 255.996094 324.199219 255.015625 323.222656 254.207031 C 322.410156 253.539062 321.503906 252.984375 320.523438 252.570312 C 319.871094 252.292969 319.183594 252.078125 318.472656 251.929688 C 317.761719 251.785156 317.027344 251.710938 316.273438 251.710938 C 314.390625 251.710938 312.617188 252.1875 311.070312 253.03125 C 310.453125 253.367188 309.867188 253.761719 309.328125 254.207031 C 309.058594 254.429688 308.796875 254.667969 308.550781 254.914062 C 307.316406 256.148438 306.371094 257.679688 305.839844 259.390625 C 305.519531 260.414062 305.347656 261.503906 305.347656 262.636719 C 305.347656 264.519531 305.824219 266.292969 306.667969 267.839844 C 307.171875 268.769531 307.808594 269.617188 308.550781 270.359375 Z M 308.550781 270.359375 " fill-opacity="1" fill-rule="nonzero"/><g clip-path="url(#10c1d9a678)"><path fill="#5c700c" d="M 373.460938 207.035156 C 372.164062 200.097656 365.972656 195.066406 358.738281 195.066406 L 340.730469 195.066406 C 334.75 195.066406 329.40625 198.636719 327.121094 204.164062 L 326.40625 205.886719 L 304.453125 163.273438 C 300.160156 154.933594 292.386719 148.988281 283.125 146.964844 C 280.621094 146.414062 276.347656 145.84375 270.054688 145.21875 C 264.84375 144.699219 259.601562 144.285156 254.335938 143.96875 C 253.894531 149.09375 253.257812 154.25 252.429688 159.425781 C 257.625 159.765625 262.792969 160.214844 267.925781 160.789062 C 273.882812 161.457031 277.902344 162.066406 280.207031 162.648438 C 285.640625 164.027344 290.179688 167.71875 292.667969 172.777344 L 315.695312 219.628906 C 316.449219 221.160156 316.359375 222.976562 315.457031 224.425781 C 314.550781 225.875 312.964844 226.757812 311.253906 226.757812 L 231.171875 226.757812 C 221.558594 247.289062 209.082031 267.898438 194 288.179688 L 273.53125 288.179688 C 276.261719 288.179688 278.476562 290.394531 278.476562 293.128906 C 278.476562 295.859375 276.261719 298.074219 273.53125 298.074219 L 186.425781 298.074219 C 180.953125 305.007812 175.542969 311.421875 170.367188 317.277344 L 324.988281 317.277344 C 327.722656 317.277344 329.9375 319.492188 329.9375 322.222656 C 329.9375 324.957031 327.722656 327.171875 324.988281 327.171875 L 306.855469 327.171875 L 306.855469 332.109375 C 306.855469 338.871094 312.359375 344.375 319.121094 344.375 L 346.210938 344.375 C 352.976562 344.375 358.476562 338.871094 358.476562 332.109375 L 358.476562 264.230469 C 358.476562 253.707031 354.652344 243.558594 347.710938 235.652344 L 342.765625 230.015625 L 363.203125 223.90625 C 370.445312 221.746094 374.855469 214.488281 373.460938 207.03125 Z M 316.273438 241.8125 C 327.757812 241.8125 337.097656 251.15625 337.097656 262.636719 C 337.097656 274.117188 327.757812 283.460938 316.273438 283.460938 C 304.792969 283.460938 295.449219 274.117188 295.449219 262.636719 C 295.449219 251.15625 304.792969 241.8125 316.273438 241.8125 Z M 316.273438 241.8125 " fill-opacity="1" fill-rule="nonzero"/></g><path fill="#5c700c" d="M 131.578125 68.933594 L 90.257812 68.933594 L 90.257812 190.246094 L 112.308594 190.246094 L 112.308594 141.757812 L 129.605469 141.757812 C 154.671875 141.757812 171.359375 129.03125 171.359375 104.660156 C 171.359375 80.734375 153.445312 68.933594 131.578125 68.933594 Z M 128.785156 86.617188 C 140.914062 86.617188 149.039062 92.339844 149.039062 104.886719 C 149.039062 118.78125 141.28125 124.1875 127.957031 124.1875 L 112.308594 124.1875 L 112.308594 86.617188 Z M 128.785156 86.617188 " fill-opacity="1" fill-rule="nonzero"/></svg>