<svg xmlns="http://www.w3.org/2000/svg" xmlns:xlink="http://www.w3.org/1999/xlink" width="500" zoomAndPan="magnify" viewBox="0 0 375 374.999991" height="500" preserveAspectRatio="xMidYMid meet" version="1.0"><defs><clipPath id="fd855301df"><path d="M 2.683594 21.625 L 238 21.625 L 238 353.125 L 2.683594 353.125 Z M 2.683594 21.625 " clip-rule="nonzero"/></clipPath><clipPath id="656d48f54a"><path d="M 170 155 L 372 155 L 372 353.125 L 170 353.125 Z M 170 155 " clip-rule="nonzero"/></clipPath></defs><g clip-path="url(#fd855301df)"><path fill="#b4b4b4" d="M 120.140625 21.625 C 55.328125 21.625 2.792969 74.164062 2.792969 138.972656 C 2.792969 257.011719 120.140625 353.398438 120.140625 353.398438 C 120.140625 353.398438 237.488281 257.011719 237.488281 138.972656 C 237.488281 74.164062 184.949219 21.625 120.140625 21.625 Z M 120.140625 231.039062 C 70.792969 231.039062 30.785156 191.035156 30.785156 141.6875 C 30.785156 92.335938 70.792969 52.335938 120.140625 52.335938 C 169.488281 52.335938 209.492188 92.339844 209.492188 141.6875 C 209.492188 191.035156 169.488281 231.039062 120.140625 231.039062 Z M 120.140625 231.039062 " fill-opacity="1" fill-rule="nonzero"/></g><path fill="#b4b4b4" d="M 306.816406 280.441406 C 307.0625 280.683594 307.316406 280.917969 307.582031 281.136719 C 308.113281 281.574219 308.6875 281.964844 309.300781 282.296875 C 310.824219 283.125 312.574219 283.597656 314.429688 283.597656 C 315.171875 283.597656 315.894531 283.523438 316.597656 283.378906 C 317.296875 283.234375 317.972656 283.023438 318.617188 282.75 C 319.585938 282.339844 320.476562 281.792969 321.277344 281.136719 C 323.671875 279.160156 325.199219 276.167969 325.199219 272.828125 C 325.199219 271.152344 324.804688 269.570312 324.117188 268.152344 C 323.988281 267.882812 323.847656 267.617188 323.695312 267.363281 C 323.054688 266.28125 322.242188 265.316406 321.277344 264.519531 C 320.480469 263.859375 319.585938 263.316406 318.617188 262.90625 C 317.976562 262.632812 317.296875 262.417969 316.597656 262.277344 C 315.898438 262.132812 315.171875 262.058594 314.429688 262.058594 C 312.574219 262.058594 310.824219 262.527344 309.300781 263.359375 C 308.691406 263.691406 308.113281 264.082031 307.582031 264.519531 C 307.316406 264.738281 307.0625 264.972656 306.816406 265.214844 C 305.597656 266.433594 304.671875 267.941406 304.144531 269.628906 C 303.828125 270.640625 303.660156 271.714844 303.660156 272.828125 C 303.660156 274.683594 304.128906 276.429688 304.960938 277.957031 C 305.457031 278.871094 306.085938 279.707031 306.816406 280.4375 Z M 306.816406 280.441406 " fill-opacity="1" fill-rule="nonzero"/><g clip-path="url(#656d48f54a)"><path fill="#b4b4b4" d="M 370.796875 218.023438 C 369.519531 211.1875 363.414062 206.222656 356.289062 206.222656 L 338.535156 206.222656 C 332.640625 206.222656 327.375 209.746094 325.121094 215.191406 L 324.417969 216.890625 L 302.78125 174.886719 C 298.546875 166.667969 290.882812 160.808594 281.753906 158.8125 C 279.289062 158.269531 275.074219 157.707031 268.871094 157.089844 C 263.734375 156.578125 258.566406 156.171875 253.378906 155.859375 C 252.945312 160.910156 252.316406 165.992188 251.5 171.09375 C 256.621094 171.429688 261.714844 171.875 266.773438 172.441406 C 272.644531 173.097656 276.605469 173.695312 278.878906 174.273438 C 284.234375 175.628906 288.710938 179.269531 291.160156 184.253906 L 313.859375 230.433594 C 314.601562 231.945312 314.515625 233.734375 313.621094 235.164062 C 312.730469 236.59375 311.167969 237.464844 309.484375 237.464844 L 230.546875 237.464844 C 221.070312 257.699219 208.773438 278.015625 193.90625 298.003906 L 272.296875 298.003906 C 274.992188 298.003906 277.175781 300.1875 277.175781 302.882812 C 277.175781 305.578125 274.992188 307.761719 272.296875 307.761719 L 186.441406 307.761719 C 181.042969 314.59375 175.714844 320.917969 170.609375 326.6875 L 323.019531 326.6875 C 325.714844 326.6875 327.898438 328.871094 327.898438 331.5625 C 327.898438 334.257812 325.714844 336.441406 323.019531 336.441406 L 305.148438 336.441406 L 305.148438 341.304688 C 305.148438 347.972656 310.570312 353.394531 317.234375 353.394531 L 343.941406 353.394531 C 350.605469 353.394531 356.027344 347.972656 356.027344 341.304688 L 356.027344 274.398438 C 356.027344 264.027344 352.261719 254.023438 345.414062 246.226562 L 340.539062 240.675781 L 360.6875 234.652344 C 367.828125 232.523438 372.171875 225.371094 370.796875 218.019531 Z M 314.429688 252.304688 C 325.746094 252.304688 334.957031 261.511719 334.957031 272.828125 C 334.957031 284.144531 325.746094 293.355469 314.429688 293.355469 C 303.113281 293.355469 293.902344 284.144531 293.902344 272.828125 C 293.902344 261.511719 303.113281 252.304688 314.429688 252.304688 Z M 314.429688 252.304688 " fill-opacity="1" fill-rule="nonzero"/></g><path fill="#b4b4b4" d="M 132.378906 81.898438 L 91.648438 81.898438 L 91.648438 201.476562 L 113.382812 201.476562 L 113.382812 153.679688 L 130.433594 153.679688 C 155.136719 153.679688 171.589844 141.136719 171.589844 117.109375 C 171.589844 93.527344 153.933594 81.898438 132.378906 81.898438 Z M 129.625 99.328125 C 141.578125 99.328125 149.585938 104.96875 149.585938 117.335938 C 149.585938 131.03125 141.941406 136.359375 128.808594 136.359375 L 113.382812 136.359375 L 113.382812 99.328125 Z M 129.625 99.328125 " fill-opacity="1" fill-rule="nonzero"/></svg>